<svg width="512" height="512" viewBox="0 0 512 512" fill="none" xmlns="http://www.w3.org/2000/svg">
<g clip-path="url(#clip0_2_2)">
<path d="M256 512C397.385 512 512 397.385 512 256C512 114.615 397.385 0 256 0C114.615 0 0 114.615 0 256C0 397.385 114.615 512 256 512Z" fill="#F8F6F8"/>
<path d="M255.437 512C184.744 512 127.437 454.693 127.437 384C127.437 313.307 184.744 256 255.437 256C326.13 256 383.437 198.693 383.437 128C383.437 57.307 326.13 0 255.437 0H256C397.385 0 512 114.615 512 256C512 397.385 397.385 512 256 512H255.437Z" fill="black"/>
<path d="M256 412.473C271.725 412.473 284.473 399.725 284.473 384C284.473 368.275 271.725 355.527 256 355.527C240.275 355.527 227.527 368.275 227.527 384C227.527 399.725 240.275 412.473 256 412.473Z" fill="#F8F6F8"/>
<path d="M256 167.873C271.725 167.873 284.473 155.125 284.473 139.4C284.473 123.675 271.725 110.927 256 110.927C240.275 110.927 227.527 123.675 227.527 139.4C227.527 155.125 240.275 167.873 256 167.873Z" fill="black"/>
</g>
<defs>
<clipPath id="clip0_2_2">
<rect width="512" height="512" fill="white"/>
</clipPath>
</defs>
</svg>